<svg width="1200" height="520" viewBox="0 0 1200 520" xmlns="http://www.w3.org/2000/svg" role="img" aria-labelledby="title desc">
  <title id="title">SlashLyrics pixel wordmark</title>
  <desc id="desc">A crisp gradient pixel logo spelling slashlyrics with a double slash prefix.</desc>
  <defs>
    <linearGradient id="logo-gradient" x1="66" y1="78" x2="980" y2="360" gradientUnits="userSpaceOnUse">
      <stop offset="0" stop-color="#38bdf8"/>
      <stop offset="0.28" stop-color="#818cf8"/>
      <stop offset="0.55" stop-color="#f472b6"/>
      <stop offset="0.78" stop-color="#fb7185"/>
      <stop offset="1" stop-color="#facc15"/>
    </linearGradient>
    <linearGradient id="meter-gradient" x1="0" y1="0" x2="118" y2="0" gradientUnits="userSpaceOnUse">
      <stop offset="0" stop-color="#38bdf8"/>
      <stop offset="0.5" stop-color="#f472b6"/>
      <stop offset="1" stop-color="#facc15"/>
    </linearGradient>
    <filter id="shadow" x="-20%" y="-20%" width="140%" height="140%">
      <feDropShadow dx="0" dy="2" stdDeviation="1.2" flood-color="#000000" flood-opacity="0.55"/>
    </filter>
  </defs>
  <rect width="1200" height="520" rx="8" fill="#08090f"/>
  <path d="M64 42H1136" stroke="#27272a" stroke-width="1"/>
  <path d="M64 374H1136" stroke="#27272a" stroke-width="1"/>
  <g opacity="0.18">
    <path d="M1038 72L1000 328" stroke="#38bdf8" stroke-width="10" stroke-linecap="round"/>
    <path d="M1078 72L1040 328" stroke="#f472b6" stroke-width="10" stroke-linecap="round"/>
  </g>
  <g fill="url(#logo-gradient)" filter="url(#shadow)">
    <rect x="118" y="78" width="11" height="23" rx="1.5"/>
    <rect x="131" y="78" width="11" height="23" rx="1.5"/>
    <rect x="209" y="78" width="11" height="23" rx="1.5"/>
    <rect x="222" y="78" width="11" height="23" rx="1.5"/>
    <rect x="248" y="78" width="11" height="23" rx="1.5"/>
    <rect x="261" y="78" width="11" height="23" rx="1.5"/>
    <rect x="274" y="78" width="11" height="23" rx="1.5"/>
    <rect x="287" y="78" width="11" height="23" rx="1.5"/>
    <rect x="300" y="78" width="11" height="23" rx="1.5"/>
    <rect x="313" y="78" width="11" height="23" rx="1.5"/>
    <rect x="326" y="78" width="11" height="23" rx="1.5"/>
    <rect x="352" y="78" width="11" height="23" rx="1.5"/>
    <rect x="365" y="78" width="11" height="23" rx="1.5"/>
    <rect x="469" y="78" width="11" height="23" rx="1.5"/>
    <rect x="482" y="78" width="11" height="23" rx="1.5"/>
    <rect x="495" y="78" width="11" height="23" rx="1.5"/>
    <rect x="508" y="78" width="11" height="23" rx="1.5"/>
    <rect x="521" y="78" width="11" height="23" rx="1.5"/>
    <rect x="560" y="78" width="11" height="23" rx="1.5"/>
    <rect x="573" y="78" width="11" height="23" rx="1.5"/>
    <rect x="586" y="78" width="11" height="23" rx="1.5"/>
    <rect x="599" y="78" width="11" height="23" rx="1.5"/>
    <rect x="612" y="78" width="11" height="23" rx="1.5"/>
    <rect x="625" y="78" width="11" height="23" rx="1.5"/>
    <rect x="638" y="78" width="11" height="23" rx="1.5"/>
    <rect x="664" y="78" width="11" height="23" rx="1.5"/>
    <rect x="677" y="78" width="11" height="23" rx="1.5"/>
    <rect x="729" y="78" width="11" height="23" rx="1.5"/>
    <rect x="742" y="78" width="11" height="23" rx="1.5"/>
    <rect x="105" y="106" width="11" height="23" rx="1.5"/>
    <rect x="118" y="106" width="11" height="23" rx="1.5"/>
    <rect x="196" y="106" width="11" height="23" rx="1.5"/>
    <rect x="209" y="106" width="11" height="23" rx="1.5"/>
    <rect x="248" y="106" width="11" height="23" rx="1.5"/>
    <rect x="261" y="106" width="11" height="23" rx="1.5"/>
    <rect x="352" y="106" width="11" height="23" rx="1.5"/>
    <rect x="365" y="106" width="11" height="23" rx="1.5"/>
    <rect x="456" y="106" width="11" height="23" rx="1.5"/>
    <rect x="469" y="106" width="11" height="23" rx="1.5"/>
    <rect x="521" y="106" width="11" height="23" rx="1.5"/>
    <rect x="534" y="106" width="11" height="23" rx="1.5"/>
    <rect x="560" y="106" width="11" height="23" rx="1.5"/>
    <rect x="573" y="106" width="11" height="23" rx="1.5"/>
    <rect x="664" y="106" width="11" height="23" rx="1.5"/>
    <rect x="677" y="106" width="11" height="23" rx="1.5"/>
    <rect x="729" y="106" width="11" height="23" rx="1.5"/>
    <rect x="742" y="106" width="11" height="23" rx="1.5"/>
    <rect x="92" y="134" width="11" height="23" rx="1.5"/>
    <rect x="105" y="134" width="11" height="23" rx="1.5"/>
    <rect x="183" y="134" width="11" height="23" rx="1.5"/>
    <rect x="196" y="134" width="11" height="23" rx="1.5"/>
    <rect x="248" y="134" width="11" height="23" rx="1.5"/>
    <rect x="261" y="134" width="11" height="23" rx="1.5"/>
    <rect x="274" y="134" width="11" height="23" rx="1.5"/>
    <rect x="287" y="134" width="11" height="23" rx="1.5"/>
    <rect x="300" y="134" width="11" height="23" rx="1.5"/>
    <rect x="313" y="134" width="11" height="23" rx="1.5"/>
    <rect x="326" y="134" width="11" height="23" rx="1.5"/>
    <rect x="352" y="134" width="11" height="23" rx="1.5"/>
    <rect x="365" y="134" width="11" height="23" rx="1.5"/>
    <rect x="456" y="134" width="11" height="23" rx="1.5"/>
    <rect x="469" y="134" width="11" height="23" rx="1.5"/>
    <rect x="482" y="134" width="11" height="23" rx="1.5"/>
    <rect x="495" y="134" width="11" height="23" rx="1.5"/>
    <rect x="508" y="134" width="11" height="23" rx="1.5"/>
    <rect x="521" y="134" width="11" height="23" rx="1.5"/>
    <rect x="534" y="134" width="11" height="23" rx="1.5"/>
    <rect x="560" y="134" width="11" height="23" rx="1.5"/>
    <rect x="573" y="134" width="11" height="23" rx="1.5"/>
    <rect x="586" y="134" width="11" height="23" rx="1.5"/>
    <rect x="599" y="134" width="11" height="23" rx="1.5"/>
    <rect x="612" y="134" width="11" height="23" rx="1.5"/>
    <rect x="625" y="134" width="11" height="23" rx="1.5"/>
    <rect x="638" y="134" width="11" height="23" rx="1.5"/>
    <rect x="664" y="134" width="11" height="23" rx="1.5"/>
    <rect x="677" y="134" width="11" height="23" rx="1.5"/>
    <rect x="690" y="134" width="11" height="23" rx="1.5"/>
    <rect x="703" y="134" width="11" height="23" rx="1.5"/>
    <rect x="716" y="134" width="11" height="23" rx="1.5"/>
    <rect x="729" y="134" width="11" height="23" rx="1.5"/>
    <rect x="742" y="134" width="11" height="23" rx="1.5"/>
    <rect x="79" y="162" width="11" height="23" rx="1.5"/>
    <rect x="92" y="162" width="11" height="23" rx="1.5"/>
    <rect x="170" y="162" width="11" height="23" rx="1.5"/>
    <rect x="183" y="162" width="11" height="23" rx="1.5"/>
    <rect x="313" y="162" width="11" height="23" rx="1.5"/>
    <rect x="326" y="162" width="11" height="23" rx="1.5"/>
    <rect x="352" y="162" width="11" height="23" rx="1.5"/>
    <rect x="365" y="162" width="11" height="23" rx="1.5"/>
    <rect x="456" y="162" width="11" height="23" rx="1.5"/>
    <rect x="469" y="162" width="11" height="23" rx="1.5"/>
    <rect x="521" y="162" width="11" height="23" rx="1.5"/>
    <rect x="534" y="162" width="11" height="23" rx="1.5"/>
    <rect x="625" y="162" width="11" height="23" rx="1.5"/>
    <rect x="638" y="162" width="11" height="23" rx="1.5"/>
    <rect x="664" y="162" width="11" height="23" rx="1.5"/>
    <rect x="677" y="162" width="11" height="23" rx="1.5"/>
    <rect x="729" y="162" width="11" height="23" rx="1.5"/>
    <rect x="742" y="162" width="11" height="23" rx="1.5"/>
    <rect x="66" y="190" width="11" height="23" rx="1.5"/>
    <rect x="79" y="190" width="11" height="23" rx="1.5"/>
    <rect x="157" y="190" width="11" height="23" rx="1.5"/>
    <rect x="170" y="190" width="11" height="23" rx="1.5"/>
    <rect x="248" y="190" width="11" height="23" rx="1.5"/>
    <rect x="261" y="190" width="11" height="23" rx="1.5"/>
    <rect x="274" y="190" width="11" height="23" rx="1.5"/>
    <rect x="287" y="190" width="11" height="23" rx="1.5"/>
    <rect x="300" y="190" width="11" height="23" rx="1.5"/>
    <rect x="313" y="190" width="11" height="23" rx="1.5"/>
    <rect x="326" y="190" width="11" height="23" rx="1.5"/>
    <rect x="352" y="190" width="11" height="23" rx="1.5"/>
    <rect x="365" y="190" width="11" height="23" rx="1.5"/>
    <rect x="378" y="190" width="11" height="23" rx="1.5"/>
    <rect x="391" y="190" width="11" height="23" rx="1.5"/>
    <rect x="404" y="190" width="11" height="23" rx="1.5"/>
    <rect x="417" y="190" width="11" height="23" rx="1.5"/>
    <rect x="430" y="190" width="11" height="23" rx="1.5"/>
    <rect x="456" y="190" width="11" height="23" rx="1.5"/>
    <rect x="469" y="190" width="11" height="23" rx="1.5"/>
    <rect x="521" y="190" width="11" height="23" rx="1.5"/>
    <rect x="534" y="190" width="11" height="23" rx="1.5"/>
    <rect x="560" y="190" width="11" height="23" rx="1.5"/>
    <rect x="573" y="190" width="11" height="23" rx="1.5"/>
    <rect x="586" y="190" width="11" height="23" rx="1.5"/>
    <rect x="599" y="190" width="11" height="23" rx="1.5"/>
    <rect x="612" y="190" width="11" height="23" rx="1.5"/>
    <rect x="625" y="190" width="11" height="23" rx="1.5"/>
    <rect x="638" y="190" width="11" height="23" rx="1.5"/>
    <rect x="664" y="190" width="11" height="23" rx="1.5"/>
    <rect x="677" y="190" width="11" height="23" rx="1.5"/>
    <rect x="729" y="190" width="11" height="23" rx="1.5"/>
    <rect x="742" y="190" width="11" height="23" rx="1.5"/>
    <rect x="248" y="246" width="11" height="23" rx="1.5"/>
    <rect x="261" y="246" width="11" height="23" rx="1.5"/>
    <rect x="352" y="246" width="11" height="23" rx="1.5"/>
    <rect x="365" y="246" width="11" height="23" rx="1.5"/>
    <rect x="430" y="246" width="11" height="23" rx="1.5"/>
    <rect x="443" y="246" width="11" height="23" rx="1.5"/>
    <rect x="469" y="246" width="11" height="23" rx="1.5"/>
    <rect x="482" y="246" width="11" height="23" rx="1.5"/>
    <rect x="495" y="246" width="11" height="23" rx="1.5"/>
    <rect x="508" y="246" width="11" height="23" rx="1.5"/>
    <rect x="521" y="246" width="11" height="23" rx="1.5"/>
    <rect x="534" y="246" width="11" height="23" rx="1.5"/>
    <rect x="573" y="246" width="11" height="23" rx="1.5"/>
    <rect x="586" y="246" width="11" height="23" rx="1.5"/>
    <rect x="625" y="246" width="11" height="23" rx="1.5"/>
    <rect x="638" y="246" width="11" height="23" rx="1.5"/>
    <rect x="651" y="246" width="11" height="23" rx="1.5"/>
    <rect x="664" y="246" width="11" height="23" rx="1.5"/>
    <rect x="677" y="246" width="11" height="23" rx="1.5"/>
    <rect x="690" y="246" width="11" height="23" rx="1.5"/>
    <rect x="716" y="246" width="11" height="23" rx="1.5"/>
    <rect x="729" y="246" width="11" height="23" rx="1.5"/>
    <rect x="742" y="246" width="11" height="23" rx="1.5"/>
    <rect x="755" y="246" width="11" height="23" rx="1.5"/>
    <rect x="768" y="246" width="11" height="23" rx="1.5"/>
    <rect x="781" y="246" width="11" height="23" rx="1.5"/>
    <rect x="794" y="246" width="11" height="23" rx="1.5"/>
    <rect x="248" y="274" width="11" height="23" rx="1.5"/>
    <rect x="261" y="274" width="11" height="23" rx="1.5"/>
    <rect x="365" y="274" width="11" height="23" rx="1.5"/>
    <rect x="378" y="274" width="11" height="23" rx="1.5"/>
    <rect x="417" y="274" width="11" height="23" rx="1.5"/>
    <rect x="430" y="274" width="11" height="23" rx="1.5"/>
    <rect x="469" y="274" width="11" height="23" rx="1.5"/>
    <rect x="482" y="274" width="11" height="23" rx="1.5"/>
    <rect x="534" y="274" width="11" height="23" rx="1.5"/>
    <rect x="547" y="274" width="11" height="23" rx="1.5"/>
    <rect x="573" y="274" width="11" height="23" rx="1.5"/>
    <rect x="586" y="274" width="11" height="23" rx="1.5"/>
    <rect x="612" y="274" width="11" height="23" rx="1.5"/>
    <rect x="625" y="274" width="11" height="23" rx="1.5"/>
    <rect x="716" y="274" width="11" height="23" rx="1.5"/>
    <rect x="729" y="274" width="11" height="23" rx="1.5"/>
    <rect x="248" y="302" width="11" height="23" rx="1.5"/>
    <rect x="261" y="302" width="11" height="23" rx="1.5"/>
    <rect x="378" y="302" width="11" height="23" rx="1.5"/>
    <rect x="391" y="302" width="11" height="23" rx="1.5"/>
    <rect x="404" y="302" width="11" height="23" rx="1.5"/>
    <rect x="417" y="302" width="11" height="23" rx="1.5"/>
    <rect x="469" y="302" width="11" height="23" rx="1.5"/>
    <rect x="482" y="302" width="11" height="23" rx="1.5"/>
    <rect x="495" y="302" width="11" height="23" rx="1.5"/>
    <rect x="508" y="302" width="11" height="23" rx="1.5"/>
    <rect x="521" y="302" width="11" height="23" rx="1.5"/>
    <rect x="534" y="302" width="11" height="23" rx="1.5"/>
    <rect x="573" y="302" width="11" height="23" rx="1.5"/>
    <rect x="586" y="302" width="11" height="23" rx="1.5"/>
    <rect x="612" y="302" width="11" height="23" rx="1.5"/>
    <rect x="625" y="302" width="11" height="23" rx="1.5"/>
    <rect x="716" y="302" width="11" height="23" rx="1.5"/>
    <rect x="729" y="302" width="11" height="23" rx="1.5"/>
    <rect x="742" y="302" width="11" height="23" rx="1.5"/>
    <rect x="755" y="302" width="11" height="23" rx="1.5"/>
    <rect x="768" y="302" width="11" height="23" rx="1.5"/>
    <rect x="781" y="302" width="11" height="23" rx="1.5"/>
    <rect x="794" y="302" width="11" height="23" rx="1.5"/>
    <rect x="248" y="330" width="11" height="23" rx="1.5"/>
    <rect x="261" y="330" width="11" height="23" rx="1.5"/>
    <rect x="391" y="330" width="11" height="23" rx="1.5"/>
    <rect x="404" y="330" width="11" height="23" rx="1.5"/>
    <rect x="469" y="330" width="11" height="23" rx="1.5"/>
    <rect x="482" y="330" width="11" height="23" rx="1.5"/>
    <rect x="534" y="330" width="11" height="23" rx="1.5"/>
    <rect x="547" y="330" width="11" height="23" rx="1.5"/>
    <rect x="573" y="330" width="11" height="23" rx="1.5"/>
    <rect x="586" y="330" width="11" height="23" rx="1.5"/>
    <rect x="612" y="330" width="11" height="23" rx="1.5"/>
    <rect x="625" y="330" width="11" height="23" rx="1.5"/>
    <rect x="781" y="330" width="11" height="23" rx="1.5"/>
    <rect x="794" y="330" width="11" height="23" rx="1.5"/>
    <rect x="248" y="358" width="11" height="23" rx="1.5"/>
    <rect x="261" y="358" width="11" height="23" rx="1.5"/>
    <rect x="274" y="358" width="11" height="23" rx="1.5"/>
    <rect x="287" y="358" width="11" height="23" rx="1.5"/>
    <rect x="300" y="358" width="11" height="23" rx="1.5"/>
    <rect x="313" y="358" width="11" height="23" rx="1.5"/>
    <rect x="326" y="358" width="11" height="23" rx="1.5"/>
    <rect x="391" y="358" width="11" height="23" rx="1.5"/>
    <rect x="404" y="358" width="11" height="23" rx="1.5"/>
    <rect x="469" y="358" width="11" height="23" rx="1.5"/>
    <rect x="482" y="358" width="11" height="23" rx="1.5"/>
    <rect x="534" y="358" width="11" height="23" rx="1.5"/>
    <rect x="547" y="358" width="11" height="23" rx="1.5"/>
    <rect x="573" y="358" width="11" height="23" rx="1.5"/>
    <rect x="586" y="358" width="11" height="23" rx="1.5"/>
    <rect x="625" y="358" width="11" height="23" rx="1.5"/>
    <rect x="638" y="358" width="11" height="23" rx="1.5"/>
    <rect x="651" y="358" width="11" height="23" rx="1.5"/>
    <rect x="664" y="358" width="11" height="23" rx="1.5"/>
    <rect x="677" y="358" width="11" height="23" rx="1.5"/>
    <rect x="690" y="358" width="11" height="23" rx="1.5"/>
    <rect x="716" y="358" width="11" height="23" rx="1.5"/>
    <rect x="729" y="358" width="11" height="23" rx="1.5"/>
    <rect x="742" y="358" width="11" height="23" rx="1.5"/>
    <rect x="755" y="358" width="11" height="23" rx="1.5"/>
    <rect x="768" y="358" width="11" height="23" rx="1.5"/>
    <rect x="781" y="358" width="11" height="23" rx="1.5"/>
    <rect x="794" y="358" width="11" height="23" rx="1.5"/>
  </g>
  <text x="64" y="428" font-family="DejaVu Sans Mono, Consolas, Liberation Mono, Menlo, monospace" font-size="20" font-weight="700" letter-spacing="1.5" fill="#f4f4f5">// LYRICS AS GHOST COMMENTS INSIDE ANY IDE</text>
  <text x="64" y="462" font-family="DejaVu Sans Mono, Consolas, Liberation Mono, Menlo, monospace" font-size="15" fill="#a1a1aa">$ install SlashLyrics for your editor</text>
  <g transform="translate(1010 414)" fill="url(#meter-gradient)">
    <rect x="0" y="28" width="10" height="24" rx="4"/>
    <rect x="18" y="8" width="10" height="44" rx="4"/>
    <rect x="36" y="20" width="10" height="32" rx="4"/>
    <rect x="54" y="0" width="10" height="52" rx="4"/>
    <rect x="72" y="14" width="10" height="38" rx="4"/>
    <rect x="90" y="30" width="10" height="22" rx="4"/>
    <rect x="108" y="4" width="10" height="48" rx="4"/>
  </g>
</svg>
